<?xml version="1.0" encoding="utf-8"?>
<!-- Generator: Adobe Illustrator 16.0.0, SVG Export Plug-In . SVG Version: 6.00 Build 0)  -->
<!DOCTYPE svg PUBLIC "-//W3C//DTD SVG 1.1//EN" "http://www.w3.org/Graphics/SVG/1.1/DTD/svg11.dtd">
<svg version="1.1" id="Calque_1" xmlns="http://www.w3.org/2000/svg" xmlns:xlink="http://www.w3.org/1999/xlink" x="0px" y="0px"
	 width="575px" height="544px" viewBox="0 0 575 544" enable-background="new 0 0 575 544" xml:space="preserve">
<polygon points="108.583,164.468 44.379,103.906 44.379,441.744 108.583,380.066 "/>
<polygon points="189.91,301.939 221.823,271.283 189.91,241.181 "/>
<polygon points="189.91,491.693 254.116,491.693 254.116,367.967 189.91,429.646 "/>
<polygon points="254.116,41.019 189.91,41.019 189.91,114.679 254.116,175.244 "/>
<polygon points="355.34,270.725 391.087,304.443 391.087,236.385 "/>
<polygon points="391.086,41.019 326.882,41.019 326.882,170.355 391.086,108.676 "/>
<polygon points="326.882,491.693 391.086,491.693 391.086,430.943 326.882,370.383 "/>
<polygon points="463.851,373.082 528.057,433.646 528.057,104.803 463.851,166.483 "/>
<polygon points="391.086,430.943 499.438,533.15 568.822,472.1 528.057,433.646 528.057,491.693 463.851,491.693 463.851,373.082 
	391.086,304.445 "/>
<polygon points="288.263,207.455 254.116,175.244 254.116,240.259 "/>
<polygon points="8,69.59 44.379,103.905 44.379,41.019 108.583,41.019 108.583,164.468 189.91,241.18 189.91,114.68 77.387,8.539 
	"/>
<polygon points="288.897,334.553 326.883,370.383 326.883,298.063 "/>
<polygon points="254.116,367.967 288.898,334.553 254.116,301.742 "/>
<polygon points="497.14,6.795 391.086,108.677 391.086,236.384 463.852,166.482 463.852,41.019 528.057,41.019 528.057,104.802 
	567.129,67.266 "/>
<polygon points="108.583,380.066 108.583,491.693 44.379,491.693 44.379,441.744 10.365,474.42 80.356,534.891 189.91,429.646 
	189.91,301.939 "/>
<polygon points="326.882,170.355 288.263,207.455 326.882,243.882 "/>
<polygon points="254.116,301.744 254.116,240.258 221.823,271.283 "/>
<polygon points="326.882,298.063 355.339,270.726 326.882,243.882 "/>
</svg>
