<?xml version="1.0" encoding="utf-8"?>
<!-- Generator: Adobe Illustrator 16.0.0, SVG Export Plug-In . SVG Version: 6.00 Build 0)  -->
<!DOCTYPE svg PUBLIC "-//W3C//DTD SVG 1.1//EN" "http://www.w3.org/Graphics/SVG/1.1/DTD/svg11.dtd">
<svg version="1.1" id="Calque_1" xmlns="http://www.w3.org/2000/svg" xmlns:xlink="http://www.w3.org/1999/xlink" x="0px" y="0px"
	 width="549px" height="545px" viewBox="0 0 549 545" enable-background="new 0 0 549 545" xml:space="preserve">
<text transform="matrix(0.8896 0.5515 -0.6351 0.7724 283.8086 568.8447)" fill="#FFFFFF" font-family="'Karrik-Regular'" font-size="23.7496"> </text>
<text transform="matrix(0.4307 0.8053 -0.9274 0.374 249.4443 503.4756)" fill="#FFFFFF" font-family="'Karrik-Regular'" font-size="25.3857"> </text>
<text transform="matrix(0.3421 0.8291 -0.9549 0.2971 252.3877 495.3115)" fill="#FFFFFF" font-family="'Karrik-Regular'" font-size="25.5926"> </text>
<text transform="matrix(-0.0787 0.8663 -0.9977 -0.0683 285.4902 484.542)" fill="#FFFFFF" font-family="'Karrik-Regular'" font-size="25.9387"> </text>
<text transform="matrix(-0.5864 0.7473 -0.8607 -0.5092 297.8467 534.5537)" fill="#FFFFFF" font-family="'Karrik-Regular'" font-size="24.9256"> </text>
<text transform="matrix(-0.6143 0.7345 -0.8459 -0.5334 296.2617 538.6777)" fill="#FFFFFF" font-family="'Karrik-Regular'" font-size="24.8316"> </text>
<text transform="matrix(-0.6418 0.721 -0.8303 -0.5573 294.3154 542.8359)" fill="#FFFFFF" font-family="'Karrik-Regular'" font-size="24.7355"> </text>
<text transform="matrix(-0.669 0.7068 -0.814 -0.5809 291.8906 547.0957)" fill="#FFFFFF" font-family="'Karrik-Regular'" font-size="24.6377"> </text>
<text transform="matrix(-1 0.4307 -0.496 -0.8683 225.4849 593.376)" fill="#FFFFFF" font-family="'Karrik-Regular'" font-size="23.2553"> </text>
<g>
	<path d="M276.736,10.783c-144.637,0-261.887,117.25-261.887,261.885s117.25,261.886,261.887,261.886
		c144.635,0,261.886-117.251,261.886-261.886S421.371,10.783,276.736,10.783z M276.736,436.347
		c-90.399,0-163.68-73.28-163.68-163.679c0-90.396,73.281-163.679,163.68-163.679c90.396,0,163.678,73.282,163.678,163.679
		C440.414,363.066,367.133,436.347,276.736,436.347z"/>
</g>
<g>
	<path fill="#FFFFFF" d="M105.726,116.496l-8.396,8.989l-3.245-3.03l20.436-21.882l3.245,3.03l-8.437,9.033l26.311,24.572
		l-3.604,3.859L105.726,116.496z"/>
	<path fill="#FFFFFF" d="M140.229,115.146l4.734,12.531l-4.198,3.396l-14.752-40.084l4.898-3.962l36.163,22.763l-4.338,3.51
		l-11.359-7.173L140.229,115.146z M147.973,103.634l-10.399-6.56c-2.36-1.486-4.336-2.976-6.274-4.418l-0.093,0.076
		c1.043,2.243,2.076,4.571,3.018,6.975l4.279,11.587L147.973,103.634z"/>
	<path fill="#FFFFFF" d="M151.347,72.965c2.037-1.764,5.186-3.876,8.324-5.64c4.865-2.733,8.503-3.607,11.816-2.854
		c2.66,0.569,5.007,2.418,6.534,5.138c2.615,4.655,1.421,9.388-1.589,12.729l0.089,0.157c3.249-0.587,6.281,1.013,9.175,4.204
		c3.913,4.271,6.661,7.201,8.157,8.149l-4.708,2.645c-1.134-0.67-3.623-3.264-7.085-7.1c-3.779-4.276-6.691-5.05-10.912-2.885
		l-4.289,2.41l8.581,15.274l-4.551,2.557L151.347,72.965z M164.92,86.468l4.655-2.616c4.865-2.732,6.452-7.135,4.189-11.162
		c-2.557-4.552-6.969-4.688-11.811-2.036c-2.197,1.234-3.649,2.325-4.264,2.945L164.92,86.468z"/>
	<path fill="#FFFFFF" d="M210.961,68.149l-14.708,5.542l5.14,13.643l16.394-6.177l1.544,4.098l-21.277,8.019l-14.258-37.84
		l20.435-7.7l1.545,4.099l-15.551,5.859l4.506,11.958l14.708-5.542L210.961,68.149z"/>
	<path fill="#FFFFFF" d="M216.032,44.27l5.107-1.085l4.053,19.074l0.176-0.037c0.732-1.751,1.49-3.384,2.213-4.887l8.935-17.418
		l6.339-1.348l-10.753,19.829l20.274,19.491l-6.045,1.285l-17.158-16.658l-2.834,5.142l3.206,15.084l-5.105,1.085L216.032,44.27z"/>
	<path fill="#FFFFFF" d="M301.467,60.227c-0.036-5.647-0.079-12.438,0.218-17.47l-0.181-0.009
		c-1.601,4.671-3.515,9.627-5.813,15.105L287.64,77.12l-3.956-0.187l-5.632-19.546c-1.651-5.784-3.025-11.074-3.939-15.923
		l-0.12-0.006c-0.355,5.029-0.973,11.788-1.616,17.825l-1.891,17.271l-4.975-0.232l4.71-40.267l6.653,0.312l5.978,19.863
		c1.444,5.053,2.616,9.553,3.438,13.797l0.181,0.008c1.21-4.027,2.856-8.396,4.893-13.406l8.108-19.203l6.653,0.312l0.624,40.517
		l-5.095-0.238L301.467,60.227z"/>
	<path fill="#FFFFFF" d="M321.587,69.078l-7.239,11.27l-5.229-1.346l23.388-35.733l6.102,1.571l3.279,42.6l-5.403-1.391
		l-1.013-13.396L321.587,69.078z M335.443,68.435l-0.932-12.26c-0.214-2.78-0.195-5.254-0.193-7.67l-0.116-0.029
		c-1.18,2.175-2.432,4.392-3.801,6.579l-6.752,10.342L335.443,68.435z"/>
	<path fill="#FFFFFF" d="M348.798,90.258l8.338-40.875l4.971,2.4l-4.571,20.51c-1.109,5.06-2.328,10.068-3.375,13.893l0.108,0.052
		c2.342-3.333,5.563-7.108,9.074-11.208l13.73-16.022l4.915,2.373L377.5,81.996c-1.06,4.817-2.174,9.609-3.484,13.706l0.107,0.052
		c2.688-3.633,5.669-7.189,8.995-11.18l13.675-16.049l4.809,2.321l-27.897,31.434l-4.916-2.373l4.561-21.181
		c1.108-5.194,2.074-9.125,3.361-13.034l-0.108-0.052c-2.396,3.307-4.927,6.481-8.546,10.53l-14.342,16.461L348.798,90.258z"/>
	<path fill="#FFFFFF" d="M396.159,101.853l-11.003,7.639l-4.314-3.247l35.293-24.053l5.034,3.787l-13.287,40.612l-4.459-3.355
		l4.196-12.762L396.159,101.853z M409.209,106.564l3.834-11.682c0.868-2.651,1.833-4.93,2.76-7.16l-0.097-0.072
		c-1.923,1.557-3.93,3.126-6.031,4.623l-10.198,6.968L409.209,106.564z"/>
	<path fill="#FFFFFF" d="M440.348,102.609c2.499,2.024,5.313,4.573,8.105,7.63c5.058,5.538,7.375,10.654,7.325,15.494
		c-0.009,4.884-2.048,9.59-6.877,14.001c-4.874,4.45-10.237,6.586-15.533,6.304c-5.34-0.242-11.054-3.474-16.355-9.277
		c-2.509-2.747-4.479-5.173-6.038-7.324L440.348,102.609z M417.463,130.58c0.714,1.137,1.964,2.595,3.34,4.102
		c7.525,8.24,16.221,8.506,24.283,1.142c7.084-6.389,7.917-14.463,0.473-22.615c-1.821-1.993-3.373-3.338-4.525-4.154
		L417.463,130.58z"/>
	<path fill="#FFFFFF" d="M499.104,207.875l-3.291-11.851l4.277-1.188l8.011,28.846l-4.277,1.188l-3.308-11.909l-34.685,9.634
		l-1.413-5.088L499.104,207.875z"/>
	<path fill="#FFFFFF" d="M482.195,237.854l-13.177-2.416l-0.741-5.35l41.946,8.064l0.865,6.241l-38.17,19.217l-0.765-5.527
		l12.009-6.024L482.195,237.854z M488.056,250.431l10.988-5.52c2.492-1.254,4.787-2.177,7.023-3.093l-0.017-0.118
		c-2.46-0.266-4.987-0.582-7.531-1.018l-12.133-2.317L488.056,250.431z"/>
	<path fill="#FFFFFF" d="M512.492,269.448c0.449,2.657,0.618,6.446,0.494,10.045c-0.191,5.577-1.335,9.14-3.7,11.58
		c-1.87,1.978-4.669,3.021-7.787,2.914c-5.337-0.184-8.76-3.664-10.053-7.972l-0.18-0.006c-1.187,3.081-4.129,4.841-8.36,5.656
		c-5.683,1.124-9.613,1.949-11.202,2.735l0.187-5.396c1.162-0.621,4.671-1.4,9.748-2.367c5.618-1.007,7.792-3.094,8.135-7.825
		l0.17-4.918l-17.512-0.604l0.18-5.217L512.492,269.448z M493.901,274.031l-0.184,5.338c-0.192,5.577,2.744,9.221,7.362,9.38
		c5.217,0.18,7.626-3.52,7.877-9.035c0.086-2.519-0.093-4.326-0.303-5.174L493.901,274.031z"/>
	<path fill="#FFFFFF" d="M485.644,322.866l2.9-15.449l-14.328-2.69l-3.233,17.217l-4.305-0.809l4.197-22.347l39.741,7.465
		l-4.03,21.462l-4.305-0.809l3.067-16.333l-12.559-2.358l-2.902,15.448L485.644,322.866z"/>
	<path fill="#FFFFFF" d="M503.407,339.636l-1.729,4.926l-18.4-6.455l-0.061,0.171c1.114,1.535,2.115,3.031,3.024,4.431
		l10.233,16.688l-2.145,6.115l-11.348-19.496l-27.192,7.186l2.045-5.832l23.151-5.996l-2.919-5.093l-14.552-5.104l1.728-4.927
		L503.407,339.636z"/>
	<path fill="#FFFFFF" d="M445.271,404.261c4.837,2.915,10.653,6.419,14.793,9.296l0.101-0.149c-3.15-3.801-6.382-8.019-9.857-12.837
		l-12.24-16.916l2.221-3.278l19.614,5.387c5.797,1.607,11.026,3.193,15.64,4.941l0.068-0.1c-4.105-2.926-9.551-6.977-14.367-10.673
		l-13.752-10.619l2.794-4.124l31.901,25.015l-3.734,5.515l-20.066-5.257c-5.064-1.401-9.515-2.749-13.564-4.26l-0.102,0.149
		c2.806,3.132,5.675,6.814,8.889,11.165l12.157,16.932l-3.735,5.514l-34.896-20.593l2.859-4.223L445.271,404.261z"/>
	<path fill="#FFFFFF" d="M427.251,416.84l-5.872-12.04l3.867-3.77l18.39,38.548l-4.51,4.398l-38.11-19.323l3.994-3.896l11.973,6.093
		L427.251,416.84z M420.604,429.018l10.962,5.57c2.486,1.262,4.592,2.562,6.654,3.818l0.087-0.083
		c-1.247-2.138-2.491-4.36-3.649-6.666l-5.332-11.142L420.604,429.018z"/>
	<path fill="#FFFFFF" d="M395.02,429.106l30.613,28.338l-4.63,3.003l-15.161-14.55c-3.749-3.573-7.397-7.214-10.124-10.094
		l-0.101,0.065c1.634,3.731,3.188,8.443,4.873,13.572l6.57,20.051l-4.579,2.972l-15.294-14.535
		c-3.567-3.406-7.086-6.845-9.907-10.092l-0.101,0.065c1.712,4.182,3.203,8.576,4.89,13.489l6.622,20.018l-4.479,2.906
		l-12.394-40.158l4.58-2.971l15.738,14.891c3.864,3.642,6.725,6.507,9.397,9.635l0.101-0.064c-1.584-3.764-2.983-7.575-4.565-12.771
		l-6.629-20.8L395.02,429.106z"/>
	<path fill="#FFFFFF" d="M360.529,463.557l-0.794-13.371l5.019-1.994l2.163,42.654l-5.855,2.326l-27.755-32.485l5.186-2.061
		l8.711,10.226L360.529,463.557z M349.713,472.245l7.978,9.354c1.813,2.121,3.255,4.129,4.677,6.083l0.111-0.045
		c-0.328-2.451-0.624-4.98-0.807-7.556l-0.64-12.334L349.713,472.245z"/>
	<path fill="#FFFFFF" d="M336.846,500.887c-3.031,1.075-6.675,2.148-10.739,2.935c-7.364,1.427-12.938,0.733-17.041-1.834
		c-4.163-2.555-7.114-6.751-8.358-13.173c-1.255-6.48-0.278-12.171,2.726-16.542c2.993-4.43,8.732-7.619,16.45-9.114
		c3.651-0.707,6.75-1.123,9.398-1.331L336.846,500.887z M324.921,466.767c-1.342,0.016-3.238,0.321-5.241,0.71
		c-10.958,2.122-15.722,9.401-13.646,20.123c1.755,9.378,8.21,14.302,19.049,12.203c2.652-0.515,4.608-1.138,5.907-1.694
		L324.921,466.767z"/>
	<path fill="#FFFFFF" d="M216.437,496.32l11.837,3.344l-1.207,4.272l-28.813-8.139l1.207-4.273l11.895,3.36l9.787-34.645
		l5.081,1.435L216.437,496.32z"/>
	<path fill="#FFFFFF" d="M199.43,466.26l8.979-9.942l4.939,2.181l-28.896,31.451l-5.764-2.543l3.699-42.569l5.105,2.253
		l-1.183,13.381L199.43,466.26z M185.651,464.64l-1.076,12.247c-0.242,2.779-0.662,5.218-1.058,7.601l0.109,0.048
		c1.519-1.953,3.115-3.938,4.822-5.873l8.346-9.105L185.651,464.64z"/>
	<path fill="#FFFFFF" d="M156.84,475.675c-2.502-1.003-5.823-2.833-8.828-4.815c-4.659-3.071-7.104-5.905-7.952-9.196
		c-0.713-2.626-0.145-5.558,1.573-8.162c2.939-4.459,7.693-5.564,12.043-4.422l0.099-0.15c-2.01-2.619-1.978-6.048-0.467-10.082
		c2.003-5.437,3.348-9.221,3.506-10.986l4.508,2.974c-0.076,1.314-1.24,4.716-3.063,9.552c-2.069,5.319-1.423,8.262,2.437,11.021
		l4.107,2.708l9.645-14.628l4.358,2.874L156.84,475.675z M162.622,457.421l-4.459-2.939c-4.659-3.071-9.299-2.466-11.843,1.393
		c-2.873,4.357-0.972,8.342,3.604,11.432c2.104,1.387,3.739,2.177,4.572,2.439L162.622,457.421z"/>
	<path fill="#FFFFFF" d="M125.225,424.939l11.688,10.514l9.75-10.841l-13.026-11.717l2.93-3.256l16.907,15.206l-27.043,30.068
		l-16.239-14.605l2.929-3.256l12.357,11.114l8.547-9.502l-11.688-10.513L125.225,424.939z"/>
	<path fill="#FFFFFF" d="M101.711,431.446l-3.315-4.032l15.063-12.382l-0.114-0.14c-1.891,0.157-3.689,0.236-5.355,0.287
		l-19.574,0.092l-4.114-5.005l22.55,0.412l7.962-26.971l3.924,4.773l-6.882,22.898l5.868,0.146l11.91-9.791l3.314,4.032
		L101.711,431.446z"/>
	<path fill="#FFFFFF" d="M75.723,345.717c-5.037,2.555-11.092,5.625-15.726,7.607l0.073,0.165
		c4.893-0.654,10.182-1.156,16.109-1.546l20.829-1.403l1.602,3.622l-14.97,13.768c-4.437,4.061-8.556,7.652-12.484,10.636
		l0.049,0.109c4.658-1.928,10.979-4.395,16.667-6.516l16.295-6.022l2.013,4.554l-38.124,13.771l-2.691-6.091l15.098-14.218
		c3.876-3.55,7.378-6.607,10.807-9.238l-0.072-0.165c-4.144,0.717-8.787,1.195-14.179,1.61l-20.799,1.324l-2.692-6.091
		l35.964-18.654l2.062,4.664L75.723,345.717z"/>
	<path fill="#FFFFFF" d="M74.65,323.747l13.318,1.434l1.136,5.279l-42.424-4.936l-1.323-6.159l36.637-21.989l1.172,5.456
		l-11.527,6.896L74.65,323.747z M67.876,311.641l-10.548,6.317c-2.392,1.435-4.612,2.525-6.773,3.604l0.025,0.118
		c2.472,0.082,5.016,0.21,7.585,0.456l12.271,1.413L67.876,311.641z"/>
	<path fill="#FFFFFF" d="M81.407,289.918l-40.264,10.941l-0.094-5.521l20.378-5.144c5.02-1.285,10.041-2.45,13.929-3.235
		l-0.002-0.12c-4.031-0.592-8.852-1.771-14.095-3.063l-20.489-5.056l-0.092-5.46l20.436-5.266c4.78-1.221,9.562-2.382,13.812-3.053
		l-0.003-0.12c-4.453-0.765-8.972-1.829-14.033-3.004l-20.488-4.996l-0.09-5.34l40.63,10.778l0.092,5.459l-20.973,5.455
		c-5.139,1.347-9.084,2.253-13.154,2.862l0.002,0.119c4.032,0.652,8.007,1.485,13.251,2.897l21.156,5.405L81.407,289.918z"/>
	<path fill="#FFFFFF" d="M70.476,242.397l11.761,6.413l-0.968,5.313l-37.324-20.769l1.13-6.199l42.263-6.326l-1.002,5.49
		l-13.289,1.97L70.476,242.397z M68.839,228.619l-12.163,1.81c-2.759,0.412-5.228,0.572-7.638,0.743l-0.021,0.118
		c2.254,1.021,4.557,2.111,6.837,3.319l10.801,5.994L68.839,228.619z"/>
	<path fill="#FFFFFF" d="M51.373,202.524c0.695-3.14,1.72-6.797,3.209-10.66c2.698-6.998,6.242-11.354,10.595-13.472
		c4.374-2.171,9.497-2.447,15.599-0.096c6.159,2.375,10.464,6.221,12.575,11.086c2.168,4.887,1.826,11.443-1.001,18.777
		c-1.338,3.472-2.629,6.317-3.857,8.673L51.373,202.524z M86.618,210.517c0.699-1.146,1.446-2.916,2.18-4.819
		c4.014-10.413,0.371-18.313-9.818-22.241c-8.88-3.486-16.477-0.628-20.448,9.673c-0.972,2.52-1.481,4.51-1.697,5.905
		L86.618,210.517z"/>
</g>
</svg>
